<svg width="49" height="49" viewBox="0 0 49 49" fill="none" xmlns="http://www.w3.org/2000/svg">
<g id="Group 30">
<g id="Group 29" filter="url(#filter0_d_3_296)">
<path id="Rectangle 92" d="M13.3182 0.5H35.6818C40.552 0.5 44.5 4.44803 44.5 9.31818V31.6818C44.5 36.552 40.552 40.5 35.6818 40.5H13.3182C8.44803 40.5 4.5 36.552 4.5 31.6818V9.31818C4.5 4.44803 8.44803 0.5 13.3182 0.5Z" stroke="white"/>
</g>
<path id="Path 34" d="M24.1339 37.3393C20.8758 37.3393 17.6908 36.3731 14.9818 34.563C12.2728 32.7529 10.1614 30.1802 8.9146 27.1701C7.66778 24.16 7.34156 20.8478 7.97718 17.6523C8.6128 14.4568 10.1817 11.5215 12.4855 9.21772C14.7894 6.9139 17.7246 5.34498 20.9201 4.70936C24.1156 4.07374 27.4278 4.39996 30.4379 5.64678C33.448 6.8936 36.0207 9.00501 37.8308 11.714C39.6409 14.423 40.6071 17.608 40.6071 20.866C40.602 25.2335 38.8649 29.4206 35.7766 32.5088C32.6884 35.597 28.5013 37.3342 24.1339 37.3393ZM25.1164 27.4187C25.0851 27.4186 25.0541 27.4247 25.0252 27.4366C24.9963 27.4486 24.97 27.4661 24.9479 27.4882C24.9258 27.5103 24.9083 27.5366 24.8964 27.5655C24.8844 27.5944 24.8784 27.6254 24.8785 27.6567V35.4979C24.8785 35.561 24.9035 35.6215 24.9481 35.6662C24.9928 35.7108 25.0533 35.7359 25.1164 35.7359C25.1341 35.7359 25.1518 35.7339 25.1691 35.73C27.6752 35.1597 29.9742 32.4786 31.3191 28.555C31.3298 28.5239 31.3339 28.491 31.3312 28.4582C31.3286 28.4255 31.3192 28.3936 31.3037 28.3647C31.2887 28.336 31.2679 28.3108 31.2427 28.2905C31.2176 28.2703 31.1885 28.2554 31.1573 28.2468C29.1838 27.7503 27.1617 27.4722 25.1274 27.4173H25.1201M23.1484 27.4173C21.1141 27.4724 19.092 27.7508 17.1185 28.2475C17.0867 28.2556 17.0569 28.2703 17.031 28.2905C17.0051 28.3107 16.9837 28.336 16.9681 28.3649C16.9525 28.3938 16.943 28.4256 16.9403 28.4583C16.9376 28.491 16.9417 28.5239 16.9523 28.555C18.298 32.4764 20.5969 35.1575 23.1023 35.73C23.1196 35.734 23.1373 35.7359 23.155 35.7359C23.2181 35.7359 23.2786 35.7108 23.3232 35.6662C23.3679 35.6215 23.3929 35.561 23.3929 35.4979V27.6574C23.3929 27.5943 23.3679 27.5338 23.3232 27.4891C23.2786 27.4445 23.2181 27.4195 23.155 27.4195H23.1477M15.261 28.8288C15.2333 28.8288 15.2059 28.8335 15.1798 28.8427C14.2946 29.1584 13.4391 29.5516 12.6231 30.0178C12.5932 30.0351 12.5673 30.0586 12.5474 30.0869C12.5275 30.1151 12.5139 30.1474 12.5077 30.1814C12.5015 30.2154 12.5028 30.2503 12.5115 30.2838C12.5202 30.3172 12.536 30.3484 12.558 30.3751C14.0103 32.1358 15.8419 33.5454 17.9158 34.4985C17.9645 34.5206 18.0193 34.5256 18.0712 34.5126C18.1232 34.4997 18.1692 34.4697 18.202 34.4274C18.2347 34.3851 18.2523 34.3329 18.2517 34.2794C18.2512 34.2259 18.2327 34.1741 18.1991 34.1325C16.9946 32.5954 16.0758 30.8546 15.4865 28.9928C15.4709 28.9454 15.4407 28.9041 15.4002 28.8749C15.3597 28.8457 15.311 28.8301 15.261 28.8303M33.0082 28.8303C32.9581 28.8301 32.9093 28.8457 32.8687 28.8749C32.8281 28.9041 32.7977 28.9453 32.7819 28.9928C32.1923 30.8549 31.273 32.596 30.0679 34.1332C30.0341 34.1749 30.0154 34.2268 30.0148 34.2805C30.0143 34.3342 30.0319 34.3865 30.0648 34.4289C30.0977 34.4713 30.144 34.5013 30.1961 34.5141C30.2482 34.5269 30.3032 34.5217 30.352 34.4993C32.4255 33.5462 34.2568 32.1369 35.709 30.3766C35.7313 30.3498 35.7473 30.3186 35.7562 30.285C35.765 30.2513 35.7663 30.2162 35.7601 30.182C35.7539 30.1478 35.7403 30.1154 35.7202 30.087C35.7001 30.0587 35.6741 30.035 35.6439 30.0178C34.8285 29.5515 33.9734 29.1583 33.0887 28.8427C33.0626 28.8336 33.0351 28.8289 33.0074 28.8288M34.2521 21.6128C34.1903 21.6126 34.1309 21.6365 34.0864 21.6794C34.042 21.7224 34.016 21.781 34.0141 21.8427C33.959 23.6237 33.7238 25.3945 33.312 27.1281C33.2981 27.1854 33.306 27.2458 33.3342 27.2976C33.3623 27.3494 33.4087 27.3889 33.4643 27.4085C34.5356 27.7799 35.5682 28.2549 36.5474 28.8266C36.6009 28.8584 36.6648 28.868 36.7253 28.8532C36.7858 28.8384 36.8381 28.8005 36.871 28.7476C38.1582 26.6684 38.9164 24.3054 39.0791 21.8654C39.0813 21.8329 39.0768 21.8003 39.0659 21.7696C39.055 21.7389 39.0379 21.7107 39.0156 21.6869C38.9934 21.6631 38.9665 21.6441 38.9366 21.6311C38.9067 21.6181 38.8745 21.6114 38.8419 21.6114L34.2521 21.6128ZM9.41999 21.6128C9.3874 21.6129 9.35517 21.6196 9.32528 21.6326C9.2954 21.6456 9.2685 21.6646 9.24626 21.6884C9.22402 21.7122 9.20691 21.7403 9.19599 21.771C9.18507 21.8017 9.18057 21.8344 9.18278 21.8669C9.34527 24.3068 10.1032 26.6698 11.3902 28.749C11.423 28.8019 11.4753 28.8399 11.5358 28.8546C11.5963 28.8694 11.6602 28.8599 11.7138 28.8281C12.6934 28.2571 13.7262 27.7826 14.7976 27.4114C14.8531 27.3917 14.8994 27.3522 14.9275 27.3004C14.9556 27.2486 14.9636 27.1883 14.9499 27.131C14.5381 25.3957 14.3036 23.6232 14.2499 21.8405C14.2478 21.7788 14.2219 21.7204 14.1775 21.6775C14.1331 21.6346 14.0737 21.6106 14.012 21.6106L9.41999 21.6128ZM15.9771 21.6128C15.945 21.6128 15.9133 21.6193 15.8838 21.6318C15.8542 21.6444 15.8276 21.6627 15.8054 21.6859C15.7831 21.709 15.7658 21.7363 15.7544 21.7663C15.743 21.7963 15.7378 21.8283 15.7391 21.8603C15.7982 23.4778 16.0177 25.0854 16.3944 26.6595C16.4019 26.6899 16.4154 26.7186 16.4341 26.7437C16.4529 26.7689 16.4764 26.79 16.5035 26.8059C16.5404 26.828 16.5827 26.8396 16.6257 26.8396C16.646 26.8395 16.6662 26.8367 16.6858 26.8315C18.8022 26.2904 20.9727 25.9883 23.1565 25.931C23.2183 25.9291 23.2769 25.9032 23.32 25.8588C23.363 25.8144 23.3871 25.7549 23.3871 25.6931V21.8486C23.3871 21.7855 23.362 21.7249 23.3174 21.6803C23.2728 21.6357 23.2122 21.6106 23.1491 21.6106L15.9771 21.6128ZM25.1135 21.6128C25.0504 21.6128 24.9898 21.6379 24.9452 21.6825C24.9006 21.7271 24.8755 21.7877 24.8755 21.8508V25.696C24.8755 25.7578 24.8996 25.8173 24.9426 25.8617C24.9857 25.9061 25.0443 25.932 25.1062 25.9339C27.2901 25.9909 29.4608 26.2925 31.5776 26.833C31.6082 26.8413 31.6403 26.8434 31.6718 26.8391C31.7033 26.8348 31.7336 26.8242 31.7609 26.8079C31.7882 26.7917 31.812 26.7701 31.8308 26.7445C31.8496 26.7188 31.8631 26.6897 31.8704 26.6588C32.247 25.0849 32.4663 23.4775 32.525 21.8603C32.5262 21.8283 32.5211 21.7964 32.5097 21.7665C32.4984 21.7366 32.4811 21.7092 32.459 21.6861C32.4368 21.663 32.4102 21.6446 32.3808 21.632C32.3514 21.6194 32.3197 21.6129 32.2877 21.6128H25.1135ZM36.6718 12.8769C36.629 12.8769 36.587 12.8885 36.5503 12.9106C35.571 13.4822 34.5385 13.9571 33.4672 14.3287C33.4116 14.3483 33.3652 14.3878 33.3371 14.4396C33.309 14.4914 33.3011 14.5519 33.3149 14.6092C33.7269 16.342 33.9624 18.112 34.0178 19.8923C34.0197 19.9541 34.0456 20.0126 34.0901 20.0556C34.1345 20.0985 34.194 20.1224 34.2557 20.1222H38.8455C38.8781 20.1222 38.9104 20.1154 38.9403 20.1024C38.9701 20.0894 38.997 20.0705 39.0193 20.0466C39.0415 20.0228 39.0586 19.9947 39.0695 19.964C39.0805 19.9333 39.085 19.9006 39.0828 19.8681C38.9201 17.4281 38.162 15.0651 36.8746 12.986C36.8532 12.9515 36.8234 12.923 36.7879 12.9032C36.7524 12.8835 36.7124 12.8732 36.6718 12.8732M31.6398 14.8918C31.6196 14.8916 31.5994 14.8941 31.5798 14.8991C29.463 15.4399 27.2923 15.7415 25.1083 15.7982C25.0465 15.8001 24.9879 15.826 24.9448 15.8704C24.9018 15.9148 24.8777 15.9742 24.8777 16.0361V19.8813C24.8777 19.9444 24.9028 20.0049 24.9474 20.0496C24.992 20.0942 25.0526 20.1193 25.1157 20.1193H32.2907C32.3227 20.1192 32.3543 20.1127 32.3838 20.1001C32.4132 20.0875 32.4398 20.0691 32.4619 20.046C32.484 20.0229 32.5013 19.9955 32.5126 19.9656C32.524 19.9357 32.5292 19.9038 32.5279 19.8718C32.4692 18.2546 32.2499 16.6472 31.8733 15.0733C31.8609 15.0214 31.8312 14.9751 31.7893 14.9421C31.7473 14.909 31.6954 14.891 31.642 14.891M16.6331 14.891C16.59 14.8909 16.5477 14.9026 16.5108 14.9247C16.4838 14.9406 16.4602 14.9617 16.4414 14.9869C16.4227 15.012 16.4092 15.0407 16.4017 15.0711C16.025 16.6452 15.8055 18.2528 15.7464 19.8703C15.7452 19.9024 15.7504 19.9343 15.7617 19.9643C15.7731 19.9943 15.7905 20.0217 15.8127 20.0448C15.8349 20.0679 15.8616 20.0863 15.8911 20.0988C15.9206 20.1114 15.9523 20.1178 15.9844 20.1178H23.1594C23.2225 20.1178 23.283 20.0927 23.3276 20.0481C23.3723 20.0035 23.3973 19.943 23.3973 19.8798V16.0398C23.3974 15.9779 23.3733 15.9185 23.3302 15.874C23.2872 15.8296 23.2285 15.8037 23.1667 15.8018C20.983 15.7448 18.8125 15.4429 16.696 14.902C16.6764 14.8968 16.6563 14.8941 16.636 14.894M11.5959 12.8776C11.5553 12.8775 11.5153 12.8878 11.4798 12.9075C11.4443 12.9273 11.4144 12.9558 11.3931 12.9904C10.1061 15.0696 9.3482 17.4326 9.18571 19.8725C9.1835 19.905 9.188 19.9377 9.19892 19.9684C9.20984 19.9991 9.22695 20.0272 9.24919 20.051C9.27143 20.0748 9.29832 20.0938 9.32821 20.1068C9.35809 20.1198 9.39033 20.1266 9.42292 20.1266H14.0135C14.0757 20.1262 14.1353 20.1015 14.1795 20.0577C14.2237 20.0139 14.249 19.9545 14.2499 19.8923C14.3047 18.1113 14.5399 16.3405 14.9521 14.607C14.9658 14.5497 14.9578 14.4893 14.9297 14.4376C14.9016 14.3858 14.8553 14.3463 14.7998 14.3265C13.7285 13.9558 12.696 13.4816 11.7167 12.9106C11.6799 12.8888 11.6387 12.8774 11.5959 12.8776ZM25.1157 5.99549C25.0526 5.99549 24.992 6.02056 24.9474 6.06518C24.9028 6.10981 24.8777 6.17033 24.8777 6.23344V14.0754C24.8776 14.1067 24.8837 14.1377 24.8956 14.1666C24.9076 14.1955 24.9251 14.2218 24.9472 14.2439C24.9693 14.266 24.9956 14.2835 25.0245 14.2955C25.0534 14.3074 25.0844 14.3135 25.1157 14.3134H25.123C27.1573 14.2589 29.1795 13.9807 31.1529 13.4838C31.1847 13.4756 31.2144 13.4609 31.2402 13.4407C31.266 13.4205 31.2873 13.3951 31.3028 13.3662C31.3184 13.3374 31.3278 13.3056 31.3304 13.2729C31.3331 13.2402 31.329 13.2074 31.3184 13.1763C29.9734 9.25426 27.6745 6.57315 25.1684 6.00135C25.1511 5.99717 25.1334 5.99569 25.1157 5.99549ZM23.1513 5.99476C23.1336 5.99494 23.1159 5.99715 23.0986 6.00135C20.5925 6.57095 18.2936 9.25279 16.9486 13.1763C16.9379 13.2075 16.9337 13.2405 16.9364 13.2733C16.939 13.3061 16.9485 13.338 16.9641 13.3669C16.9797 13.3959 17.0012 13.4213 17.0271 13.4416C17.0531 13.4618 17.0829 13.4765 17.1148 13.4846C19.0883 13.9813 21.1104 14.2597 23.1447 14.3148H23.1521C23.2152 14.3148 23.2757 14.2898 23.3203 14.2451C23.3649 14.2005 23.39 14.14 23.39 14.0769V6.2349C23.39 6.17179 23.3649 6.11127 23.3203 6.06665C23.2757 6.02202 23.2152 5.99695 23.1521 5.99695M30.2538 7.21597C30.2089 7.216 30.1648 7.22877 30.1268 7.2528C30.0888 7.27683 30.0584 7.31113 30.0391 7.35174C30.0198 7.39235 30.0124 7.4376 30.0177 7.48225C30.0231 7.5269 30.041 7.56912 30.0693 7.60401C31.2745 9.14112 32.1938 10.8822 32.7834 12.7444C32.7937 12.7743 32.8098 12.8019 32.8308 12.8256C32.8519 12.8492 32.8775 12.8684 32.906 12.8821C32.9346 12.8957 32.9656 12.9035 32.9972 12.905C33.0288 12.9065 33.0604 12.9017 33.0902 12.8908C33.9748 12.575 34.8296 12.1812 35.6446 11.7143C35.6744 11.6969 35.7001 11.6732 35.7199 11.6449C35.7397 11.6167 35.7531 11.5844 35.7592 11.5505C35.7653 11.5165 35.764 11.4816 35.7554 11.4482C35.7467 11.4148 35.7309 11.3837 35.709 11.357C34.2571 9.59634 32.4257 8.18694 30.352 7.23428C30.3208 7.2198 30.2868 7.21231 30.2524 7.21231M18.0146 7.21231C17.9805 7.21239 17.9467 7.21988 17.9158 7.23428C15.8419 8.18846 14.0106 9.59906 12.5587 11.3606C12.5374 11.3872 12.522 11.4181 12.5136 11.4511C12.5053 11.4842 12.5041 11.5186 12.5102 11.5521C12.5163 11.5857 12.5296 11.6175 12.5491 11.6455C12.5685 11.6734 12.5938 11.6969 12.6231 11.7143C13.4391 12.1793 14.2947 12.5713 15.1798 12.8857C15.2058 12.8951 15.2333 12.8998 15.261 12.8996C15.3109 12.8996 15.3595 12.8838 15.4 12.8547C15.4404 12.8255 15.4707 12.7844 15.4865 12.7371C16.0762 10.8758 16.9952 9.13543 18.1998 7.59888C18.2282 7.56399 18.2461 7.52177 18.2515 7.47713C18.2568 7.43248 18.2494 7.38723 18.2301 7.34662C18.2108 7.30601 18.1804 7.2717 18.1424 7.24767C18.1044 7.22364 18.0603 7.21087 18.0153 7.21085" fill="white"/>
</g>
<defs>
<filter id="filter0_d_3_296" x="0" y="0" width="49" height="49" filterUnits="userSpaceOnUse" color-interpolation-filters="sRGB">
<feFlood flood-opacity="0" result="BackgroundImageFix"/>
<feColorMatrix in="SourceAlpha" type="matrix" values="0 0 0 0 0 0 0 0 0 0 0 0 0 0 0 0 0 0 127 0" result="hardAlpha"/>
<feOffset dy="4"/>
<feGaussianBlur stdDeviation="2"/>
<feComposite in2="hardAlpha" operator="out"/>
<feColorMatrix type="matrix" values="0 0 0 0 0 0 0 0 0 0 0 0 0 0 0 0 0 0 0.25 0"/>
<feBlend mode="normal" in2="BackgroundImageFix" result="effect1_dropShadow_3_296"/>
<feBlend mode="normal" in="SourceGraphic" in2="effect1_dropShadow_3_296" result="shape"/>
</filter>
</defs>
</svg>
