<svg width="128" height="128" viewBox="0 0 128 128" fill="none" xmlns="http://www.w3.org/2000/svg">
<g id="Group 27" filter="url(#filter0_d_2_279)">
<path id="Rectangle 92" d="M96.7273 0H31.2727C16.2104 0 4 12.2104 4 27.2727V92.7273C4 107.79 16.2104 120 31.2727 120H96.7273C111.79 120 124 107.79 124 92.7273V27.2727C124 12.2104 111.79 0 96.7273 0Z" fill="#BBBBBB"/>
<path id="Path 33" d="M55.1689 85.8872C61.8896 86.0022 68.5736 84.8729 74.8834 82.5563C76.9702 81.6411 78.939 80.4775 80.7471 79.0908V83.7545C80.7471 89.7545 69.2925 94.4145 55.1616 94.4145C40.9034 94.4145 29.5762 89.7508 29.5762 83.7545V79.0926C31.3174 80.5068 33.246 81.673 35.3071 82.5581C41.6623 84.8866 48.3944 86.016 55.1616 85.889M85.0162 63.3672C87.4144 62.7017 89.8125 62.0345 91.9453 61.2345C94.0322 60.3195 96.0009 59.1559 97.8089 57.769V62.4363C97.7747 63.2248 97.5797 63.998 97.2358 64.7084C96.8918 65.4188 96.4063 66.0513 95.8089 66.5672C92.6899 69.2338 88.9203 71.0268 84.8834 71.7635C84.8834 71.4963 85.0162 71.2308 85.0162 70.9635V63.3672ZM80.7525 70.9635C80.7525 73.3617 78.7525 75.6272 75.5562 77.3599C75.2889 77.4926 75.1562 77.6254 74.8907 77.7599C68.683 80.4892 61.9476 81.8087 55.1689 81.6236C46.7744 81.6236 39.3125 80.0235 34.6489 77.3599C31.4507 75.6272 29.5853 73.3599 29.5853 70.9635V66.2999C31.3265 67.7141 33.2551 68.8803 35.3162 69.7654C41.6714 72.0939 48.4035 73.2233 55.1707 73.0963C61.8908 73.2111 68.5742 72.0818 74.8834 69.7654C75.8162 69.2326 76.8834 68.8326 77.8144 68.2999C78.6144 67.7672 79.4144 67.2345 80.0798 66.6999C80.3471 66.5672 80.4798 66.4326 80.7453 66.2999L80.7525 70.9635ZM81.6853 51.109C85.2029 50.6511 88.6496 49.7557 91.9453 48.4435C94.0322 47.5286 96.0009 46.365 97.8089 44.9781V49.6417C97.8089 52.3072 95.5434 54.7054 91.9453 56.4363C89.7017 57.5618 87.3307 58.4128 84.8834 58.9708C84.8834 58.7035 85.0162 58.4381 85.0162 58.1708C84.9553 56.832 84.6296 55.5185 84.0578 54.3064C83.4861 53.0942 82.6797 52.0075 81.6853 51.109ZM50.9035 47.7781C52.2362 47.6454 53.7016 47.5126 55.1671 47.5126C62.1624 47.3197 69.1045 48.7805 75.4289 51.7763C78.7598 53.509 80.758 55.7763 80.758 58.1726C80.7519 58.7299 80.6149 59.278 80.358 59.7726C79.4043 61.8622 77.7564 63.5571 75.6944 64.569H75.5562C70.8834 67.2326 63.4289 68.8308 55.1689 68.8308C48.3463 69.0286 41.5649 67.7089 35.3144 64.9672C35.0471 64.8345 34.9144 64.6999 34.6489 64.5672C31.4507 62.8344 29.5853 60.5672 29.5853 58.1708C29.5853 53.6399 36.6489 49.6435 46.6416 48.1708C48.0465 47.8994 49.4744 47.7654 50.9053 47.7708M97.8144 36.8454C97.8144 39.3763 95.8144 41.509 92.618 43.2417C87.5788 45.8237 82.0221 47.2357 76.3616 47.3726C75.8399 47.233 75.3447 47.0081 74.8962 46.7072C68.5935 44.3411 61.9061 43.166 55.1744 43.2417C53.9762 43.2417 52.9089 43.3763 51.8434 43.3763L51.7089 43.2417C48.5107 41.509 46.6453 39.3781 46.6453 36.8454C46.6453 30.9817 57.9707 26.1854 72.2289 26.1854C86.3544 26.1854 97.8144 30.9817 97.8144 36.8454Z" fill="white"/>
</g>
<defs>
<filter id="filter0_d_2_279" x="0" y="0" width="128" height="128" filterUnits="userSpaceOnUse" color-interpolation-filters="sRGB">
<feFlood flood-opacity="0" result="BackgroundImageFix"/>
<feColorMatrix in="SourceAlpha" type="matrix" values="0 0 0 0 0 0 0 0 0 0 0 0 0 0 0 0 0 0 127 0" result="hardAlpha"/>
<feOffset dy="4"/>
<feGaussianBlur stdDeviation="2"/>
<feComposite in2="hardAlpha" operator="out"/>
<feColorMatrix type="matrix" values="0 0 0 0 0 0 0 0 0 0 0 0 0 0 0 0 0 0 0.25 0"/>
<feBlend mode="normal" in2="BackgroundImageFix" result="effect1_dropShadow_2_279"/>
<feBlend mode="normal" in="SourceGraphic" in2="effect1_dropShadow_2_279" result="shape"/>
</filter>
</defs>
</svg>
