<svg width="89" height="108" viewBox="0 0 89 108" fill="none" xmlns="http://www.w3.org/2000/svg">
<g id="Group 25">
<path id="Path 10" d="M88.7538 37.3792C88.7538 37.3792 81.9928 38.0616 72.8936 39.2159L72.2997 0L31.0286 44.116L61.1481 19.8607L59.9696 40.9856C47.6221 42.8143 34.69 45.1872 28.7843 47.7345C15.7986 53.3372 11.4468 60.0687 11.4468 67.0254C11.4468 73.9821 15.6632 80.5005 24.773 80.7833C24.773 80.7833 19.3339 78.2361 19.3339 69.7898C19.3339 61.3436 28.7843 52.4134 47.9599 47.3068C51.8679 46.2665 55.8792 45.2368 59.7886 44.2568L57.7508 80.782H73.5238L72.9245 41.0513C82.1108 38.8593 88.7564 37.3792 88.7564 37.3792" fill="#F7D797"/>
<path id="Path 11" d="M26.7059 102.613C26.6867 103.663 26.2563 104.663 25.5073 105.399C24.7582 106.134 23.7504 106.546 22.7007 106.546C21.6509 106.546 20.6431 106.134 19.8941 105.399C19.145 104.663 18.7146 103.663 18.6954 102.613V94.7773C18.7041 94.3564 18.5453 93.9492 18.2539 93.6453C17.9626 93.3414 17.5625 93.1655 17.1416 93.1564V102.487C17.1416 105.855 18.9555 107.995 22.7014 107.995C26.4472 107.995 28.2598 105.85 28.2598 102.487V93.1564H26.7059V102.613Z" fill="#F7D797"/>
<path id="Path 12" d="M38.9302 99.7443C36.4996 98.7669 35.5223 98.0618 35.5223 96.5857C35.5223 95.1727 36.5787 94.2999 38.7506 94.2999C39.9629 94.2906 41.1619 94.5535 42.2591 95.0694V93.5947C41.0898 93.0651 39.8151 92.8092 38.5321 92.8466C35.8025 92.8466 33.9738 94.3427 33.9738 96.5883C33.9738 98.6449 35.1496 99.8301 37.7196 100.912C40.3299 102.011 41.3475 102.387 41.3475 104.13C41.3475 105.732 40.291 106.543 37.8617 106.543C36.9518 106.544 36.0461 106.42 35.1697 106.175C35.01 106.132 34.8422 106.126 34.6799 106.159C34.5175 106.191 34.3651 106.261 34.2348 106.364C34.1045 106.466 33.9999 106.597 33.9294 106.747C33.8589 106.897 33.8246 107.061 33.829 107.227C35.1285 107.766 36.5262 108.028 37.9328 107.997C41.2402 107.997 42.8932 106.563 42.8932 104.13C42.8932 101.596 41.4601 100.763 38.9289 99.7457" fill="#F7D797"/>
<path id="Path 13" d="M48.5455 107.684H50.1007V93.155C49.6795 93.1645 49.2793 93.3406 48.9878 93.6447C48.6963 93.9488 48.5372 94.356 48.5455 94.7772V107.684Z" fill="#F7D797"/>
<path id="Path 14" d="M66.2492 97.3554C66.2492 94.591 64.7155 93.155 61.825 93.155H56.4449V106.064C56.4366 106.485 56.5957 106.892 56.8873 107.196C57.1788 107.5 57.579 107.676 58.0001 107.685V94.5279H61.6198C63.4137 94.5279 64.69 95.1742 64.69 97.3554C64.69 99.2324 63.474 100.139 61.6198 100.139H60.6613L64.5881 107.684H66.1969L62.8895 101.427C63.8543 101.286 64.7321 100.791 65.3517 100.038C65.9713 99.2847 66.2884 98.328 66.2412 97.354" fill="#F7D797"/>
<path id="Path 15" d="M71.8319 107.684H73.3857V93.155C72.9647 93.1645 72.5646 93.3406 72.2733 93.6448C71.982 93.9489 71.8232 94.3561 71.8319 94.7772V107.684Z" fill="#F7D797"/>
<path id="Path 16" d="M84.159 99.7443C81.7284 98.7669 80.7524 98.0618 80.7524 96.5857C80.7524 95.1727 81.8088 94.2999 83.9807 94.2999C85.1926 94.2907 86.3912 94.5536 87.4879 95.0694V93.5947C86.3191 93.0651 85.0449 92.8092 83.7622 92.8466C81.0326 92.8466 79.2039 94.3427 79.2039 96.5883C79.2039 98.6449 80.3797 99.8301 82.9498 100.912C85.5614 102.011 86.5763 102.387 86.5763 104.13C86.5763 105.732 85.5198 106.543 83.0905 106.543C82.1811 106.543 81.2759 106.42 80.3998 106.175C80.2406 106.133 80.0734 106.128 79.9118 106.161C79.7502 106.194 79.5987 106.264 79.4691 106.366C79.3396 106.468 79.2356 106.599 79.1656 106.749C79.0956 106.898 79.0614 107.062 79.0658 107.227C80.3657 107.766 81.7639 108.029 83.171 107.997C86.4784 107.997 88.1314 106.563 88.1314 104.13C88.1314 101.596 86.6969 100.763 84.1657 99.7457" fill="#F7D797"/>
<path id="Path 17" d="M5.55974 93.155L0 107.685H1.59137L6.27432 95.0266L3.53801 102.426H3.52594L6.27567 95.0266L9.04548 102.426H9.02402L6.27432 95.0266L10.4009 106.135C10.5603 106.585 10.8539 106.974 11.2418 107.251C11.6297 107.529 12.0934 107.68 12.5701 107.685L7.01169 93.155H5.55974Z" fill="#F7D797"/>
</g>
</svg>
