<svg width="124" height="124" viewBox="0 0 124 124" fill="none" xmlns="http://www.w3.org/2000/svg">
<g id="Group 26" filter="url(#filter0_d_2_269)">
<path id="Rectangle 92" d="M93.6364 0H30.3636C15.8034 0 4 11.8034 4 26.3636V89.6364C4 104.197 15.8034 116 30.3636 116H93.6364C108.197 116 120 104.197 120 89.6364V26.3636C120 11.8034 108.197 0 93.6364 0Z" fill="#EFEFEF"/>
<path id="Path 33" d="M53.4633 83.0243C59.9599 83.1355 66.4211 82.0439 72.5207 79.8044C74.5379 78.9197 76.441 77.795 78.1888 76.4545V80.9627C78.1888 86.7627 67.1161 91.2673 53.4562 91.2673C39.6733 91.2673 28.7236 86.7592 28.7236 80.9627V76.4563C30.4068 77.8233 32.2711 78.9506 34.2635 79.8062C40.4069 82.0571 46.9146 83.1489 53.4562 83.0261M82.3156 61.255C84.6339 60.6117 86.9521 59.9667 89.0138 59.1933C91.0311 58.3089 92.9342 57.1841 94.6819 55.8434V60.3551C94.6489 61.1173 94.4604 61.8648 94.1279 62.5515C93.7954 63.2382 93.326 63.8497 92.7486 64.3483C89.7336 66.9261 86.0896 68.6592 82.1873 69.3715C82.1873 69.1131 82.3156 68.8565 82.3156 68.5981V61.255ZM78.1941 68.5981C78.1941 70.9164 76.2608 73.1063 73.171 74.7813C72.9126 74.9096 72.7843 75.0379 72.5277 75.168C66.5269 77.8062 60.016 79.0818 53.4633 78.9028C45.3485 78.9028 38.1355 77.3561 33.6273 74.7813C30.5357 73.1063 28.7324 70.9146 28.7324 68.5981V64.09C30.4156 65.457 32.2799 66.5843 34.2723 67.4399C40.4157 69.6908 46.9234 70.7825 53.465 70.6598C59.9611 70.7708 66.4217 69.6791 72.5207 67.4399C73.4223 66.9249 74.454 66.5383 75.3539 66.0233C76.1272 65.5083 76.9005 64.9933 77.5438 64.4766C77.8022 64.3483 77.9305 64.2183 78.1871 64.09L78.1941 68.5981ZM79.0958 49.4054C82.4961 48.9628 85.8279 48.0972 89.0138 46.8288C91.0311 45.9443 92.9342 44.8196 94.6819 43.4789V47.987C94.6819 50.5636 92.492 52.8819 89.0138 54.5551C86.845 55.6432 84.553 56.4658 82.1873 57.0052C82.1873 56.7468 82.3156 56.4902 82.3156 56.2318C82.2568 54.9376 81.9419 53.6679 81.3892 52.4962C80.8365 51.3245 80.057 50.274 79.0958 49.4054ZM49.34 46.1855C50.6283 46.0572 52.0449 45.9289 53.4615 45.9289C60.2237 45.7424 66.9344 47.1545 73.0479 50.0504C76.2678 51.7254 78.1994 53.9171 78.1994 56.2336C78.1935 56.7723 78.061 57.3021 77.8127 57.7803C76.8908 59.8002 75.2978 61.4385 73.3045 62.4167H73.171C68.654 64.9916 61.4479 66.5365 53.4633 66.5365C46.8681 66.7277 40.3128 65.452 34.2705 62.8017C34.0122 62.6733 33.8839 62.5433 33.6273 62.415C30.5357 60.74 28.7324 58.5483 28.7324 56.2318C28.7324 51.852 35.5606 47.9888 45.2202 46.5652C46.5783 46.3028 47.9586 46.1733 49.3418 46.1785M94.6872 35.6172C94.6872 38.0638 92.7539 40.1254 89.6641 41.8004C84.7929 44.2963 79.4214 45.6612 73.9496 45.7936C73.4452 45.6586 72.9666 45.4412 72.533 45.1503C66.4403 42.8631 59.9759 41.7272 53.4685 41.8004C52.3103 41.8004 51.2786 41.9304 50.2487 41.9304L50.1186 41.8004C47.027 40.1254 45.2238 38.0655 45.2238 35.6172C45.2238 29.949 56.1717 25.3126 69.9546 25.3126C83.6092 25.3126 94.6872 29.949 94.6872 35.6172Z" fill="#B1B0B0"/>
</g>
<defs>
<filter id="filter0_d_2_269" x="0" y="0" width="124" height="124" filterUnits="userSpaceOnUse" color-interpolation-filters="sRGB">
<feFlood flood-opacity="0" result="BackgroundImageFix"/>
<feColorMatrix in="SourceAlpha" type="matrix" values="0 0 0 0 0 0 0 0 0 0 0 0 0 0 0 0 0 0 127 0" result="hardAlpha"/>
<feOffset dy="4"/>
<feGaussianBlur stdDeviation="2"/>
<feComposite in2="hardAlpha" operator="out"/>
<feColorMatrix type="matrix" values="0 0 0 0 0 0 0 0 0 0 0 0 0 0 0 0 0 0 0.25 0"/>
<feBlend mode="normal" in2="BackgroundImageFix" result="effect1_dropShadow_2_269"/>
<feBlend mode="normal" in="SourceGraphic" in2="effect1_dropShadow_2_269" result="shape"/>
</filter>
</defs>
</svg>
